<svg xmlns="http://www.w3.org/2000/svg" xmlns:xlink="http://www.w3.org/1999/xlink" width="500" zoomAndPan="magnify" viewBox="0 0 375 374.999991" height="500" preserveAspectRatio="xMidYMid meet" version="1.0"><defs><g/><clipPath id="cef954a771"><path d="M 88.488281 96.757812 L 238 96.757812 L 238 278.257812 L 88.488281 278.257812 Z M 88.488281 96.757812 " clip-rule="nonzero"/></clipPath><clipPath id="7595b98837"><path d="M 150 115 L 269.238281 115 L 269.238281 260 L 150 260 Z M 150 115 " clip-rule="nonzero"/></clipPath><clipPath id="e6d8efb734"><path d="M 81.003906 165.042969 L 277.007812 165.042969 L 277.007812 218.945312 L 81.003906 218.945312 Z M 81.003906 165.042969 " clip-rule="nonzero"/></clipPath></defs><g clip-path="url(#cef954a771)"><path fill="#163b6d" d="M 197.6875 267.554688 C 153.550781 267.554688 117.773438 231.714844 117.773438 187.507812 C 117.773438 143.296875 153.550781 107.457031 197.6875 107.457031 C 212.011719 107.457031 225.441406 111.25 237.066406 117.859375 C 221.351562 104.707031 201.121094 96.785156 179.042969 96.785156 C 129.023438 96.785156 88.472656 137.402344 88.472656 187.507812 C 88.472656 237.609375 129.023438 278.226562 179.042969 278.226562 C 201.121094 278.226562 221.347656 270.304688 237.066406 257.152344 C 225.441406 263.761719 212.011719 267.554688 197.6875 267.554688 " fill-opacity="1" fill-rule="nonzero"/></g><g clip-path="url(#7595b98837)"><path fill="#4f4c4c" d="M 181.984375 251.433594 C 217.230469 251.433594 245.804688 222.8125 245.804688 187.507812 C 245.804688 152.199219 217.230469 123.578125 181.984375 123.578125 C 170.550781 123.578125 159.824219 126.609375 150.539062 131.886719 C 163.089844 121.382812 179.242188 115.058594 196.875 115.058594 C 236.824219 115.058594 269.203125 147.492188 269.203125 187.507812 C 269.203125 227.519531 236.824219 259.957031 196.875 259.957031 C 179.242188 259.957031 163.089844 253.628906 150.539062 243.125 C 159.824219 248.402344 170.550781 251.433594 181.984375 251.433594 " fill-opacity="1" fill-rule="nonzero"/></g><g clip-path="url(#e6d8efb734)"><path fill="#ffffff" d="M 81.003906 165.042969 L 277.03125 165.042969 L 277.03125 218.945312 L 81.003906 218.945312 Z M 81.003906 165.042969 " fill-opacity="1" fill-rule="nonzero"/></g><g fill="#163b6d" fill-opacity="1"><g transform="translate(107.782699, 204.243448)"><g><path d="M 12.984375 0 L 1.53125 0 L 1.53125 -0.359375 L 2 -0.359375 C 2.863281 -0.359375 3.523438 -0.734375 3.984375 -1.484375 C 4.179688 -1.828125 4.289062 -2.203125 4.3125 -2.609375 L 4.3125 -22.78125 C 4.289062 -23.414062 4.054688 -23.945312 3.609375 -24.375 C 3.160156 -24.8125 2.625 -25.03125 2 -25.03125 L 1.53125 -25.03125 L 1.53125 -25.390625 L 12.046875 -25.390625 C 14.847656 -25.390625 17.078125 -24.878906 18.734375 -23.859375 C 20.390625 -22.847656 21.234375 -21.289062 21.265625 -19.1875 C 21.234375 -18.125 21.003906 -17.195312 20.578125 -16.40625 C 19.773438 -14.90625 18.515625 -14.046875 16.796875 -13.828125 C 18.660156 -13.648438 20.195312 -12.953125 21.40625 -11.734375 C 22.613281 -10.515625 23.21875 -8.960938 23.21875 -7.078125 C 23.21875 -4.804688 22.300781 -3.054688 20.46875 -1.828125 C 18.644531 -0.609375 16.148438 0 12.984375 0 Z M 15.453125 -18.71875 C 15.429688 -22.132812 13.882812 -23.84375 10.8125 -23.84375 L 9.765625 -23.84375 L 9.765625 -1.671875 L 11.421875 -1.671875 C 11.453125 -1.671875 11.476562 -1.671875 11.5 -1.671875 C 13.164062 -1.671875 14.492188 -2.15625 15.484375 -3.125 C 16.484375 -4.09375 16.984375 -5.566406 16.984375 -7.546875 C 16.984375 -9.523438 16.425781 -11 15.3125 -11.96875 C 14.195312 -12.9375 12.757812 -13.421875 11 -13.421875 L 11 -13.75 C 12.25 -13.75 13.296875 -14.15625 14.140625 -14.96875 C 14.992188 -15.78125 15.429688 -17.03125 15.453125 -18.71875 Z M 15.453125 -18.71875 "/></g></g></g><g fill="#163b6d" fill-opacity="1"><g transform="translate(132.237783, 204.243448)"><g><path d="M 2 -0.359375 C 2.625 -0.359375 3.160156 -0.582031 3.609375 -1.03125 C 4.054688 -1.476562 4.289062 -2.019531 4.3125 -2.65625 L 4.3125 -22.859375 C 4.269531 -23.484375 4.085938 -23.941406 3.765625 -24.234375 C 3.191406 -24.765625 2.601562 -25.03125 2 -25.03125 L 1.53125 -25.03125 L 1.53125 -25.390625 L 15.421875 -25.390625 C 16.609375 -25.390625 17.585938 -25.476562 18.359375 -25.65625 C 19.128906 -25.84375 19.597656 -25.972656 19.765625 -26.046875 L 19.765625 -19.703125 L 19.40625 -19.734375 L 19.40625 -20.140625 C 19.40625 -21.640625 18.847656 -22.703125 17.734375 -23.328125 C 17.203125 -23.640625 16.578125 -23.8125 15.859375 -23.84375 L 9.765625 -23.84375 L 9.765625 -13.28125 L 14.546875 -13.28125 C 15.441406 -13.300781 16.175781 -13.609375 16.75 -14.203125 C 17.332031 -14.796875 17.625 -15.53125 17.625 -16.40625 L 17.625 -16.71875 L 18 -16.71875 L 18 -8.34375 L 17.625 -8.34375 L 17.625 -8.640625 C 17.625 -9.535156 17.335938 -10.269531 16.765625 -10.84375 C 16.203125 -11.425781 15.488281 -11.726562 14.625 -11.75 L 9.765625 -11.75 L 9.765625 -1.5625 L 14.515625 -1.5625 C 16.273438 -1.5625 17.753906 -2.066406 18.953125 -3.078125 C 20.148438 -4.097656 21.039062 -5.539062 21.625 -7.40625 L 21.984375 -7.40625 L 20.3125 0 L 1.53125 0 L 1.53125 -0.359375 Z M 2 -0.359375 "/></g></g></g><g fill="#163b6d" fill-opacity="1"><g transform="translate(155.132679, 204.243448)"><g><path d="M 2 -0.359375 C 2.625 -0.359375 3.160156 -0.582031 3.609375 -1.03125 C 4.054688 -1.476562 4.289062 -2.019531 4.3125 -2.65625 L 4.3125 -22.78125 C 4.289062 -23.414062 4.054688 -23.945312 3.609375 -24.375 C 3.160156 -24.8125 2.625 -25.03125 2 -25.03125 L 1.53125 -25.03125 L 1.53125 -25.390625 L 12.546875 -25.390625 L 12.515625 -25.03125 L 12.078125 -25.03125 C 11.453125 -25.03125 10.910156 -24.8125 10.453125 -24.375 C 9.992188 -23.945312 9.765625 -23.414062 9.765625 -22.78125 L 9.765625 -2.65625 C 9.765625 -2.019531 9.992188 -1.476562 10.453125 -1.03125 C 10.910156 -0.582031 11.453125 -0.359375 12.078125 -0.359375 L 12.515625 -0.359375 L 12.546875 0 L 1.53125 0 L 1.53125 -0.359375 Z M 2 -0.359375 "/></g></g></g><g fill="#163b6d" fill-opacity="1"><g transform="translate(169.138118, 204.243448)"><g><path d="M 11.53125 -23.796875 L 9.984375 -23.796875 C 9.929688 -23.796875 9.894531 -23.796875 9.875 -23.796875 L 9.875 -2.65625 C 9.894531 -2.019531 10.128906 -1.476562 10.578125 -1.03125 C 11.023438 -0.582031 11.5625 -0.359375 12.1875 -0.359375 L 12.65625 -0.359375 L 12.65625 0 L 1.625 0 L 1.625 -0.359375 L 2.109375 -0.359375 C 2.972656 -0.359375 3.632812 -0.734375 4.09375 -1.484375 C 4.289062 -1.828125 4.398438 -2.203125 4.421875 -2.609375 L 4.421875 -22.75 C 4.398438 -23.375 4.164062 -23.910156 3.71875 -24.359375 C 3.269531 -24.804688 2.734375 -25.03125 2.109375 -25.03125 L 1.625 -25.03125 L 1.625 -25.390625 L 14.078125 -25.390625 C 16.421875 -25.390625 18.40625 -24.882812 20.03125 -23.875 C 20.851562 -23.363281 21.503906 -22.65625 21.984375 -21.75 C 22.472656 -20.84375 22.71875 -19.65625 22.71875 -18.1875 C 22.71875 -16.726562 22.207031 -15.320312 21.1875 -13.96875 C 20.175781 -12.613281 18.703125 -11.835938 16.765625 -11.640625 C 18.160156 -11.179688 19.394531 -10.117188 20.46875 -8.453125 C 23.070312 -4.265625 25.003906 -1.773438 26.265625 -0.984375 C 26.898438 -0.597656 27.6875 -0.390625 28.625 -0.359375 L 28.625 0 L 25.078125 0 C 22.960938 0 21.207031 -0.273438 19.8125 -0.828125 C 18.425781 -1.390625 17.335938 -2.367188 16.546875 -3.765625 C 16.085938 -4.566406 15.082031 -6.640625 13.53125 -9.984375 C 12.851562 -11.453125 12.03125 -12.257812 11.0625 -12.40625 L 11.0625 -12.765625 L 12.1875 -12.765625 C 13.28125 -12.765625 14.242188 -13.09375 15.078125 -13.75 C 15.910156 -14.40625 16.472656 -15.46875 16.765625 -16.9375 C 16.859375 -17.445312 16.90625 -17.847656 16.90625 -18.140625 C 16.90625 -20.117188 16.503906 -21.550781 15.703125 -22.4375 C 14.910156 -23.320312 13.882812 -23.773438 12.625 -23.796875 C 12.382812 -23.796875 12.019531 -23.796875 11.53125 -23.796875 Z M 11.53125 -23.796875 "/></g></g></g><g fill="#163b6d" fill-opacity="1"><g transform="translate(196.241902, 204.243448)"><g><path d="M 28.65625 -25.03125 L 28.046875 -25.03125 C 27.535156 -25.03125 27.097656 -24.863281 26.734375 -24.53125 C 26.367188 -24.207031 26.175781 -23.804688 26.15625 -23.328125 L 26.15625 -9.171875 C 26.15625 -6.203125 25.222656 -3.84375 23.359375 -2.09375 C 21.503906 -0.351562 18.953125 0.515625 15.703125 0.515625 C 11.890625 0.515625 8.960938 -0.335938 6.921875 -2.046875 C 4.890625 -3.753906 3.875 -6.117188 3.875 -9.140625 L 3.875 -23.21875 C 3.851562 -23.945312 3.53125 -24.476562 2.90625 -24.8125 C 2.613281 -24.957031 2.296875 -25.03125 1.953125 -25.03125 L 1.375 -25.03125 L 1.375 -25.390625 L 11.828125 -25.390625 L 11.828125 -25.03125 L 11.25 -25.03125 C 10.71875 -25.03125 10.269531 -24.863281 9.90625 -24.53125 C 9.539062 -24.207031 9.347656 -23.796875 9.328125 -23.296875 L 9.328125 -9.4375 C 9.328125 -6.875 9.953125 -4.84375 11.203125 -3.34375 C 12.460938 -1.84375 14.191406 -1.09375 16.390625 -1.09375 C 18.597656 -1.09375 20.34375 -1.796875 21.625 -3.203125 C 22.90625 -4.617188 23.554688 -6.539062 23.578125 -8.96875 L 23.578125 -23.296875 C 23.535156 -23.992188 23.210938 -24.5 22.609375 -24.8125 C 22.316406 -24.957031 22 -25.03125 21.65625 -25.03125 L 21.078125 -25.03125 L 21.078125 -25.390625 L 28.65625 -25.390625 Z M 28.65625 -25.03125 "/></g></g></g><g fill="#163b6d" fill-opacity="1"><g transform="translate(226.030664, 204.243448)"><g><path d="M 14.84375 -23.90625 L 14.84375 -2.609375 C 14.863281 -1.984375 15.097656 -1.453125 15.546875 -1.015625 C 15.992188 -0.578125 16.53125 -0.359375 17.15625 -0.359375 L 17.59375 -0.359375 L 17.625 0 L 6.609375 0 L 6.609375 -0.359375 L 7.078125 -0.359375 C 7.679688 -0.359375 8.207031 -0.578125 8.65625 -1.015625 C 9.101562 -1.453125 9.347656 -1.972656 9.390625 -2.578125 L 9.390625 -23.90625 L 4.5 -23.90625 C 3.382812 -23.882812 2.5 -23.535156 1.84375 -22.859375 C 1.195312 -22.179688 0.875 -21.296875 0.875 -20.203125 L 0.875 -19.765625 L 0.515625 -19.765625 L 0.515625 -26.09375 C 1.503906 -25.675781 2.929688 -25.457031 4.796875 -25.4375 L 19.40625 -25.4375 C 20.15625 -25.4375 20.972656 -25.507812 21.859375 -25.65625 C 22.742188 -25.800781 23.351562 -25.945312 23.6875 -26.09375 L 23.6875 -19.765625 L 23.328125 -19.765625 L 23.328125 -20.203125 C 23.328125 -21.703125 22.757812 -22.769531 21.625 -23.40625 C 21.09375 -23.71875 20.453125 -23.882812 19.703125 -23.90625 Z M 14.84375 -23.90625 "/></g></g></g><g fill="#4f4c4c" fill-opacity="1"><g transform="translate(158.271541, 223.904709)"><g><path d="M 5.265625 0 L 3.34375 -3.359375 L 2.28125 -3.359375 L 2.28125 0 L 0.90625 0 L 0.90625 -8.40625 L 3.8125 -8.40625 C 4.457031 -8.40625 5.003906 -8.289062 5.453125 -8.0625 C 5.898438 -7.84375 6.234375 -7.539062 6.453125 -7.15625 C 6.671875 -6.78125 6.78125 -6.359375 6.78125 -5.890625 C 6.78125 -5.335938 6.617188 -4.835938 6.296875 -4.390625 C 5.984375 -3.941406 5.5 -3.640625 4.84375 -3.484375 L 6.921875 0 Z M 2.28125 -4.46875 L 3.8125 -4.46875 C 4.320312 -4.46875 4.707031 -4.59375 4.96875 -4.84375 C 5.238281 -5.101562 5.375 -5.453125 5.375 -5.890625 C 5.375 -6.328125 5.242188 -6.664062 4.984375 -6.90625 C 4.722656 -7.15625 4.332031 -7.28125 3.8125 -7.28125 L 2.28125 -7.28125 Z M 2.28125 -4.46875 "/></g></g></g><g fill="#4f4c4c" fill-opacity="1"><g transform="translate(168.359253, 223.904709)"><g><path d="M 4.734375 0.078125 C 3.953125 0.078125 3.234375 -0.101562 2.578125 -0.46875 C 1.921875 -0.832031 1.398438 -1.34375 1.015625 -2 C 0.640625 -2.65625 0.453125 -3.394531 0.453125 -4.21875 C 0.453125 -5.039062 0.640625 -5.773438 1.015625 -6.421875 C 1.398438 -7.078125 1.921875 -7.585938 2.578125 -7.953125 C 3.234375 -8.328125 3.953125 -8.515625 4.734375 -8.515625 C 5.523438 -8.515625 6.25 -8.328125 6.90625 -7.953125 C 7.5625 -7.585938 8.078125 -7.078125 8.453125 -6.421875 C 8.835938 -5.773438 9.03125 -5.039062 9.03125 -4.21875 C 9.03125 -3.394531 8.835938 -2.65625 8.453125 -2 C 8.078125 -1.34375 7.5625 -0.832031 6.90625 -0.46875 C 6.25 -0.101562 5.523438 0.078125 4.734375 0.078125 Z M 4.734375 -1.109375 C 5.296875 -1.109375 5.789062 -1.234375 6.21875 -1.484375 C 6.65625 -1.742188 7 -2.109375 7.25 -2.578125 C 7.5 -3.054688 7.625 -3.601562 7.625 -4.21875 C 7.625 -4.84375 7.5 -5.390625 7.25 -5.859375 C 7 -6.328125 6.65625 -6.679688 6.21875 -6.921875 C 5.789062 -7.171875 5.296875 -7.296875 4.734375 -7.296875 C 4.179688 -7.296875 3.6875 -7.171875 3.25 -6.921875 C 2.8125 -6.679688 2.46875 -6.328125 2.21875 -5.859375 C 1.976562 -5.390625 1.859375 -4.84375 1.859375 -4.21875 C 1.859375 -3.601562 1.976562 -3.054688 2.21875 -2.578125 C 2.46875 -2.109375 2.8125 -1.742188 3.25 -1.484375 C 3.6875 -1.234375 4.179688 -1.109375 4.734375 -1.109375 Z M 4.734375 -1.109375 "/></g></g></g><g fill="#4f4c4c" fill-opacity="1"><g transform="translate(180.285329, 223.904709)"><g><path d="M 5.96875 -1.71875 L 2.453125 -1.71875 L 1.84375 0 L 0.40625 0 L 3.421875 -8.421875 L 5.015625 -8.421875 L 8.03125 0 L 6.578125 0 Z M 5.59375 -2.84375 L 4.21875 -6.75 L 2.84375 -2.84375 Z M 5.59375 -2.84375 "/></g></g></g><g fill="#4f4c4c" fill-opacity="1"><g transform="translate(191.159184, 223.904709)"><g><path d="M 3.65625 -8.40625 C 4.550781 -8.40625 5.332031 -8.234375 6 -7.890625 C 6.675781 -7.546875 7.195312 -7.050781 7.5625 -6.40625 C 7.925781 -5.769531 8.109375 -5.023438 8.109375 -4.171875 C 8.109375 -3.316406 7.925781 -2.570312 7.5625 -1.9375 C 7.195312 -1.3125 6.675781 -0.832031 6 -0.5 C 5.332031 -0.164062 4.550781 0 3.65625 0 L 0.90625 0 L 0.90625 -8.40625 Z M 3.65625 -1.125 C 4.632812 -1.125 5.382812 -1.390625 5.90625 -1.921875 C 6.4375 -2.453125 6.703125 -3.203125 6.703125 -4.171875 C 6.703125 -5.148438 6.4375 -5.910156 5.90625 -6.453125 C 5.382812 -7.003906 4.632812 -7.28125 3.65625 -7.28125 L 2.28125 -7.28125 L 2.28125 -1.125 Z M 3.65625 -1.125 "/></g></g></g></svg>